<?xml version="1.0" encoding="UTF-8"?>
<svg id="CTRUH_-_Horizontal_-_Colour" data-name="CTRUH - Horizontal - Colour" xmlns="http://www.w3.org/2000/svg" xmlns:xlink="http://www.w3.org/1999/xlink" viewBox="0 0 6000 2000">
  <defs>
    <style>
      .cls-1 {
        fill: url(#linear-gradient);
      }

      .cls-1, .cls-2 {
        stroke-width: 0px;
      }

      .cls-2 {
        fill: url(#linear-gradient-2);
      }
    </style>
    <linearGradient id="linear-gradient" x1="1730.09" y1="1000" x2="5557.9" y2="1000" gradientUnits="userSpaceOnUse">
      <stop offset="0" stop-color="#25adf9"/>
      <stop offset="1" stop-color="#00e5d1"/>
    </linearGradient>
    <linearGradient id="linear-gradient-2" x1="479.61" y1="498.55" x2="1457.32" y2="1476.26" gradientUnits="userSpaceOnUse">
      <stop offset="0" stop-color="#3b6ee0"/>
      <stop offset=".5" stop-color="#25adf9"/>
      <stop offset="1" stop-color="#00e5d1"/>
    </linearGradient>
  </defs>
  <path id="Wordmark" class="cls-1" d="M1933.74,876.79c-21.76,38.25-32.63,79.15-32.63,122.64s10.86,85.51,32.63,123.77c21.75,38.25,51.2,68.83,88.33,91.7,37.13,22.89,76.69,34.32,118.71,34.32,34.49,0,67.32-7.68,98.45-23.06,31.12-15.37,58.31-36.57,81.58-63.57l120.39,108.02c-38.26,40.5-83.65,72.2-136.15,95.07-52.51,22.87-107.28,34.32-164.27,34.32-72.77,0-140.65-18.18-203.66-54.57-63.01-36.38-113.27-85.32-150.77-146.84-37.52-61.49-56.26-127.88-56.26-199.15s18.74-137.45,56.26-198.59c37.5-61.13,87.76-109.88,150.77-146.27,63.01-36.38,130.89-54.57,203.66-54.57,57.75,0,112.69,11.44,164.84,34.32,52.13,22.89,97.33,54.57,135.58,95.08l-120.39,108.02c-23.26-27.01-50.46-48.19-81.58-63.58-31.14-15.36-63.96-23.06-98.45-23.06-42.02,0-81.58,11.44-118.71,34.32-37.13,22.89-66.58,53.45-88.33,91.71ZM2503.08,763.15h240.79v623.35h166.52v-623.35h240.79v-149.65h-648.1v149.65ZM3726.14,1116.45l190.15,270.04h-189.03l-176.65-250.91h-122.64v250.91h-165.4v-773h347.68c55.5,0,105.38,11.08,149.65,33.2,44.25,22.14,78.94,53.08,104.08,92.83,25.12,39.77,37.69,84.77,37.69,135.02,0,57.02-15.95,106.89-47.82,149.65-31.89,42.76-74.45,73.53-127.71,92.27ZM3730.64,874.54c0-33-12.76-59.44-38.25-79.32-25.51-19.87-58.9-29.82-100.14-29.82h-164.28v218.29h164.28c41.24,0,74.63-9.93,100.14-29.82,25.49-19.87,38.25-46.3,38.25-79.32ZM4557.63,1045.57c0,39.01-7.88,74.08-23.63,105.2-15.75,31.14-37.52,55.33-65.26,72.58-27.76,17.26-59.27,25.88-94.52,25.88s-66.94-8.61-95.07-25.88c-28.13-17.25-50.07-41.44-65.82-72.58-15.75-31.12-23.63-66.19-23.63-105.2v-432.07h-165.4v438.82c0,66.77,14.8,126.58,44.44,179.47,29.62,52.89,71.07,94.15,124.34,123.77,53.25,29.64,113.64,44.45,181.15,44.45s127.88-14.81,181.15-44.45c53.25-29.62,94.69-70.88,124.34-123.77,29.62-52.89,44.44-112.69,44.44-179.47v-438.82h-166.52v432.07ZM5392.5,613.5v303.8h-352.18v-303.8h-165.4v773h165.4v-319.55h352.18v319.55h165.4v-773h-165.4Z"/>
  <path id="Icon" class="cls-2" d="M666.37,1333.81c44.57,44.57,46.06,115.33,3.34,158.05l-.85.85c-42.72,42.72-113.49,41.23-158.05-3.34l-34.27-34.27c-44.57-44.57-46.06-115.33-3.34-158.05l.85-.85c42.72-42.72,113.49-41.23,158.05,3.34l34.27,34.27ZM627.94,903.95c-44.57-44.57-113.94-47.46-154.94-6.45h0c-41,41.01-38.12,110.38,6.45,154.94l429,429c44.57,44.57,113.94,47.46,154.94,6.45h0c41-41.01,38.12-110.38-6.45-154.94l-429-429ZM627.94,511.61c-44.57-44.57-113.94-47.46-154.94-6.45h0c-41,41.01-38.12,110.38,6.45,154.94l816.32,816.31c44.57,44.57,113.94,47.46,154.94,6.45h0c41-41.01,38.12-110.38-6.45-154.94L627.94,511.61ZM1305.3,800.33l143.61-143.61c41.01-41.01,41.01-107.49,0-148.49h0c-41.01-41.01-107.49-41.01-148.49,0l-217.86,217.86c-41.01,41.01-41.01,107.49,0,148.49l217.86,217.86c41.01,41.01,107.49,41.01,148.49,0h0c41.01-41.01,41.01-107.49,0-148.49l-143.61-143.61Z"/>
</svg>